<svg width="467" height="320" viewBox="0 0 467 320" fill="none" xmlns="http://www.w3.org/2000/svg">
<rect width="467" height="320" rx="20" fill="#2F2F30"/>
<path d="M72.64 159.84C72.64 154.293 73.84 149.36 76.24 145.04C78.64 140.667 81.9733 137.28 86.24 134.88C90.56 132.427 95.44 131.2 100.88 131.2C107.547 131.2 113.253 132.96 118 136.48C122.747 140 125.92 144.8 127.52 150.88H112.48C111.36 148.533 109.76 146.747 107.68 145.52C105.653 144.293 103.333 143.68 100.72 143.68C96.5067 143.68 93.0933 145.147 90.48 148.08C87.8667 151.013 86.56 154.933 86.56 159.84C86.56 164.747 87.8667 168.667 90.48 171.6C93.0933 174.533 96.5067 176 100.72 176C103.333 176 105.653 175.387 107.68 174.16C109.76 172.933 111.36 171.147 112.48 168.8H127.52C125.92 174.88 122.747 179.68 118 183.2C113.253 186.667 107.547 188.4 100.88 188.4C95.44 188.4 90.56 187.2 86.24 184.8C81.9733 182.347 78.64 178.96 76.24 174.64C73.84 170.32 72.64 165.387 72.64 159.84ZM212.468 177.44H230.388V188H198.788V131.84H212.468V177.44ZM328.444 188L316.764 166.8H313.484V188H299.804V131.84H322.764C327.19 131.84 330.95 132.613 334.044 134.16C337.19 135.707 339.537 137.84 341.084 140.56C342.63 143.227 343.404 146.213 343.404 149.52C343.404 153.253 342.337 156.587 340.204 159.52C338.124 162.453 335.03 164.533 330.924 165.76L343.884 188H328.444ZM313.484 157.12H321.964C324.47 157.12 326.337 156.507 327.564 155.28C328.844 154.053 329.484 152.32 329.484 150.08C329.484 147.947 328.844 146.267 327.564 145.04C326.337 143.813 324.47 143.2 321.964 143.2H313.484V157.12Z" fill="#843DF8"/>
<path d="M162.458 188.56C157.178 188.56 152.324 187.333 147.898 184.88C143.524 182.427 140.031 179.013 137.418 174.64C134.857 170.213 133.577 165.253 133.577 159.76C133.577 154.267 134.857 149.333 137.418 144.96C140.031 140.587 143.524 137.173 147.898 134.72C152.324 132.267 157.178 131.04 162.458 131.04C167.738 131.04 172.564 132.267 176.938 134.72C181.364 137.173 184.831 140.587 187.338 144.96C189.898 149.333 191.178 154.267 191.178 159.76C191.178 165.253 189.898 170.213 187.338 174.64C184.778 179.013 181.311 182.427 176.938 184.88C172.564 187.333 167.738 188.56 162.458 188.56ZM162.458 176.08C166.938 176.08 170.511 174.587 173.177 171.6C175.898 168.613 177.258 164.667 177.258 159.76C177.258 154.8 175.898 150.853 173.177 147.92C170.511 144.933 166.938 143.44 162.458 143.44C157.924 143.44 154.298 144.907 151.578 147.84C148.911 150.773 147.578 154.747 147.578 159.76C147.578 164.72 148.911 168.693 151.578 171.68C154.298 174.613 157.924 176.08 162.458 176.08ZM263.473 188.56C258.193 188.56 253.34 187.333 248.913 184.88C244.54 182.427 241.046 179.013 238.433 174.64C235.873 170.213 234.593 165.253 234.593 159.76C234.593 154.267 235.873 149.333 238.433 144.96C241.046 140.587 244.54 137.173 248.913 134.72C253.34 132.267 258.193 131.04 263.473 131.04C268.753 131.04 273.58 132.267 277.953 134.72C282.38 137.173 285.846 140.587 288.353 144.96C290.913 149.333 292.193 154.267 292.193 159.76C292.193 165.253 290.913 170.213 288.353 174.64C285.793 179.013 282.326 182.427 277.953 184.88C273.58 187.333 268.753 188.56 263.473 188.56ZM263.473 176.08C267.953 176.08 271.526 174.587 274.193 171.6C276.913 168.613 278.273 164.667 278.273 159.76C278.273 154.8 276.913 150.853 274.193 147.92C271.526 144.933 267.953 143.44 263.473 143.44C258.94 143.44 255.313 144.907 252.593 147.84C249.926 150.773 248.593 154.747 248.593 159.76C248.593 164.72 249.926 168.693 252.593 171.68C255.313 174.613 258.94 176.08 263.473 176.08ZM372.311 188.56C368.205 188.56 364.525 187.893 361.271 186.56C358.018 185.227 355.405 183.253 353.431 180.64C351.511 178.027 350.498 174.88 350.391 171.2H364.951C365.165 173.28 365.885 174.88 367.111 176C368.338 177.067 369.938 177.6 371.911 177.6C373.938 177.6 375.538 177.147 376.711 176.24C377.885 175.28 378.471 173.973 378.471 172.32C378.471 170.933 377.991 169.787 377.031 168.88C376.125 167.973 374.978 167.227 373.591 166.64C372.258 166.053 370.338 165.387 367.831 164.64C364.205 163.52 361.245 162.4 358.951 161.28C356.658 160.16 354.685 158.507 353.031 156.32C351.378 154.133 350.551 151.28 350.551 147.76C350.551 142.533 352.445 138.453 356.231 135.52C360.018 132.533 364.951 131.04 371.031 131.04C377.218 131.04 382.205 132.533 385.991 135.52C389.778 138.453 391.805 142.56 392.071 147.84H377.271C377.165 146.027 376.498 144.613 375.271 143.6C374.045 142.533 372.471 142 370.551 142C368.898 142 367.565 142.453 366.551 143.36C365.538 144.213 365.031 145.467 365.031 147.12C365.031 148.933 365.885 150.347 367.591 151.36C369.298 152.373 371.965 153.467 375.591 154.64C379.218 155.867 382.151 157.04 384.391 158.16C386.685 159.28 388.658 160.907 390.311 163.04C391.965 165.173 392.791 167.92 392.791 171.28C392.791 174.48 391.965 177.387 390.311 180C388.711 182.613 386.365 184.693 383.271 186.24C380.178 187.787 376.525 188.56 372.311 188.56Z" fill="#F9FBFD"/>
</svg>
