<svg width="861" height="320" viewBox="0 0 861 320" fill="none" xmlns="http://www.w3.org/2000/svg">
<rect width="320" height="320" rx="20" fill="#2F2F30"/>
<mask id="path-2-outside-1_743_119" maskUnits="userSpaceOnUse" x="85" y="127" width="147" height="63" fill="black">
<rect fill="white" x="85" y="127" width="147" height="63"/>
<path d="M86.64 159.84C86.64 154.293 87.84 149.36 90.24 145.04C92.64 140.667 95.9733 137.28 100.24 134.88C104.56 132.427 109.44 131.2 114.88 131.2C121.547 131.2 127.253 132.96 132 136.48C136.747 140 139.92 144.8 141.52 150.88H126.48C125.36 148.533 123.76 146.747 121.68 145.52C119.653 144.293 117.333 143.68 114.72 143.68C110.507 143.68 107.093 145.147 104.48 148.08C101.867 151.013 100.56 154.933 100.56 159.84C100.56 164.747 101.867 168.667 104.48 171.6C107.093 174.533 110.507 176 114.72 176C117.333 176 119.653 175.387 121.68 174.16C123.76 172.933 125.36 171.147 126.48 168.8H141.52C139.92 174.88 136.747 179.68 132 183.2C127.253 186.667 121.547 188.4 114.88 188.4C109.44 188.4 104.56 187.2 100.24 184.8C95.9733 182.347 92.64 178.96 90.24 174.64C87.84 170.32 86.64 165.387 86.64 159.84ZM174.778 176.4V188H167.818C162.858 188 158.991 186.8 156.218 184.4C153.444 181.947 152.058 177.973 152.058 172.48V154.72H146.618V143.36H152.058V132.48H165.738V143.36H174.698V154.72H165.738V172.64C165.738 173.973 166.058 174.933 166.698 175.52C167.338 176.107 168.404 176.4 169.898 176.4H174.778ZM196.078 150.8C197.678 148.347 199.678 146.427 202.078 145.04C204.478 143.6 207.144 142.88 210.078 142.88V157.36H206.318C202.904 157.36 200.344 158.107 198.638 159.6C196.931 161.04 196.078 163.6 196.078 167.28V188H182.398V143.36H196.078V150.8ZM230.296 128.8V188H216.616V128.8H230.296Z"/>
</mask>
<path d="M86.64 159.84C86.64 154.293 87.84 149.36 90.24 145.04C92.64 140.667 95.9733 137.28 100.24 134.88C104.56 132.427 109.44 131.2 114.88 131.2C121.547 131.2 127.253 132.96 132 136.48C136.747 140 139.92 144.8 141.52 150.88H126.48C125.36 148.533 123.76 146.747 121.68 145.52C119.653 144.293 117.333 143.68 114.72 143.68C110.507 143.68 107.093 145.147 104.48 148.08C101.867 151.013 100.56 154.933 100.56 159.84C100.56 164.747 101.867 168.667 104.48 171.6C107.093 174.533 110.507 176 114.72 176C117.333 176 119.653 175.387 121.68 174.16C123.76 172.933 125.36 171.147 126.48 168.8H141.52C139.92 174.88 136.747 179.68 132 183.2C127.253 186.667 121.547 188.4 114.88 188.4C109.44 188.4 104.56 187.2 100.24 184.8C95.9733 182.347 92.64 178.96 90.24 174.64C87.84 170.32 86.64 165.387 86.64 159.84ZM174.778 176.4V188H167.818C162.858 188 158.991 186.8 156.218 184.4C153.444 181.947 152.058 177.973 152.058 172.48V154.72H146.618V143.36H152.058V132.48H165.738V143.36H174.698V154.72H165.738V172.64C165.738 173.973 166.058 174.933 166.698 175.52C167.338 176.107 168.404 176.4 169.898 176.4H174.778ZM196.078 150.8C197.678 148.347 199.678 146.427 202.078 145.04C204.478 143.6 207.144 142.88 210.078 142.88V157.36H206.318C202.904 157.36 200.344 158.107 198.638 159.6C196.931 161.04 196.078 163.6 196.078 167.28V188H182.398V143.36H196.078V150.8ZM230.296 128.8V188H216.616V128.8H230.296Z" fill="#F9FBFD"/>
<path d="M90.24 145.04L91.1142 145.526L91.1167 145.521L90.24 145.04ZM100.24 134.88L100.73 135.752L100.734 135.75L100.24 134.88ZM132 136.48L132.596 135.677L132.596 135.677L132 136.48ZM141.52 150.88V151.88H142.817L142.487 150.626L141.52 150.88ZM126.48 150.88L125.578 151.311L125.849 151.88H126.48V150.88ZM121.68 145.52L121.162 146.376L121.172 146.381L121.68 145.52ZM104.48 148.08L105.227 148.745L105.227 148.745L104.48 148.08ZM104.48 171.6L103.733 172.265L104.48 171.6ZM121.68 174.16L121.172 173.299L121.162 173.304L121.68 174.16ZM126.48 168.8V167.8H125.849L125.578 168.369L126.48 168.8ZM141.52 168.8L142.487 169.054L142.817 167.8H141.52V168.8ZM132 183.2L132.59 184.008L132.596 184.003L132 183.2ZM100.24 184.8L99.7415 185.667L99.7479 185.671L99.7544 185.674L100.24 184.8ZM90.24 174.64L91.1142 174.154L91.1142 174.154L90.24 174.64ZM87.64 159.84C87.64 154.442 88.8064 149.68 91.1142 145.526L89.3658 144.554C86.8736 149.04 85.64 154.145 85.64 159.84H87.64ZM91.1167 145.521C93.4286 141.308 96.6296 138.058 100.73 135.752L99.7497 134.008C95.3171 136.502 91.8514 140.025 89.3633 144.559L91.1167 145.521ZM100.734 135.75C104.889 133.39 109.596 132.2 114.88 132.2V130.2C109.284 130.2 104.231 131.464 99.7462 134.01L100.734 135.75ZM114.88 132.2C121.361 132.2 126.852 133.907 131.404 137.283L132.596 135.677C127.655 132.013 121.732 130.2 114.88 130.2V132.2ZM131.404 137.283C135.956 140.659 139.007 145.259 140.553 151.134L142.487 150.626C140.833 144.341 137.537 139.341 132.596 135.677L131.404 137.283ZM141.52 149.88H126.48V151.88H141.52V149.88ZM127.382 150.449C126.184 147.937 124.453 145.994 122.188 144.659L121.172 146.381C123.067 147.499 124.536 149.129 125.578 151.311L127.382 150.449ZM122.198 144.664C119.999 143.334 117.496 142.68 114.72 142.68V144.68C117.17 144.68 119.308 145.253 121.162 146.375L122.198 144.664ZM114.72 142.68C110.245 142.68 106.551 144.252 103.733 147.415L105.227 148.745C107.635 146.042 110.769 144.68 114.72 144.68V142.68ZM103.733 147.415C100.919 150.574 99.56 154.751 99.56 159.84H101.56C101.56 155.115 102.814 151.453 105.227 148.745L103.733 147.415ZM99.56 159.84C99.56 164.929 100.919 169.106 103.733 172.265L105.227 170.935C102.814 168.227 101.56 164.565 101.56 159.84H99.56ZM103.733 172.265C106.551 175.428 110.245 177 114.72 177V175C110.769 175 107.635 173.638 105.227 170.935L103.733 172.265ZM114.72 177C117.496 177 119.999 176.346 122.198 175.015L121.162 173.304C119.308 174.427 117.17 175 114.72 175V177ZM122.188 175.021C124.453 173.686 126.184 171.743 127.382 169.231L125.578 168.369C124.536 170.551 123.067 172.181 121.172 173.299L122.188 175.021ZM126.48 169.8H141.52V167.8H126.48V169.8ZM140.553 168.546C139.007 174.421 135.956 179.021 131.404 182.397L132.596 184.003C137.537 180.339 140.833 175.339 142.487 169.054L140.553 168.546ZM131.41 182.392C126.857 185.718 121.364 187.4 114.88 187.4V189.4C121.729 189.4 127.649 187.616 132.59 184.008L131.41 182.392ZM114.88 187.4C109.592 187.4 104.882 186.235 100.726 183.926L99.7544 185.674C104.238 188.165 109.288 189.4 114.88 189.4V187.4ZM100.738 183.933C96.63 181.571 93.4263 178.316 91.1142 174.154L89.3658 175.126C91.8537 179.604 95.3166 183.123 99.7415 185.667L100.738 183.933ZM91.1142 174.154C88.8064 170 87.64 165.238 87.64 159.84H85.64C85.64 165.535 86.8736 170.64 89.3658 175.126L91.1142 174.154ZM174.778 176.4H175.778V175.4H174.778V176.4ZM174.778 188V189H175.778V188H174.778ZM156.218 184.4L155.555 185.149L155.563 185.156L156.218 184.4ZM152.058 154.72H153.058V153.72H152.058V154.72ZM146.618 154.72H145.618V155.72H146.618V154.72ZM146.618 143.36V142.36H145.618V143.36H146.618ZM152.058 143.36V144.36H153.058V143.36H152.058ZM152.058 132.48V131.48H151.058V132.48H152.058ZM165.738 132.48H166.738V131.48H165.738V132.48ZM165.738 143.36H164.738V144.36H165.738V143.36ZM174.698 143.36H175.698V142.36H174.698V143.36ZM174.698 154.72V155.72H175.698V154.72H174.698ZM165.738 154.72V153.72H164.738V154.72H165.738ZM166.698 175.52L166.022 176.257L166.022 176.257L166.698 175.52ZM173.778 176.4V188H175.778V176.4H173.778ZM174.778 187H167.818V189H174.778V187ZM167.818 187C163.013 187 159.408 185.839 156.872 183.644L155.563 185.156C158.574 187.761 162.702 189 167.818 189V187ZM156.88 183.651C154.408 181.464 153.058 177.827 153.058 172.48H151.058C151.058 178.12 152.481 182.429 155.555 185.149L156.88 183.651ZM153.058 172.48V154.72H151.058V172.48H153.058ZM152.058 153.72H146.618V155.72H152.058V153.72ZM147.618 154.72V143.36H145.618V154.72H147.618ZM146.618 144.36H152.058V142.36H146.618V144.36ZM153.058 143.36V132.48H151.058V143.36H153.058ZM152.058 133.48H165.738V131.48H152.058V133.48ZM164.738 132.48V143.36H166.738V132.48H164.738ZM165.738 144.36H174.698V142.36H165.738V144.36ZM173.698 143.36V154.72H175.698V143.36H173.698ZM174.698 153.72H165.738V155.72H174.698V153.72ZM164.738 154.72V172.64H166.738V154.72H164.738ZM164.738 172.64C164.738 174.105 165.086 175.4 166.022 176.257L167.373 174.783C167.029 174.467 166.738 173.842 166.738 172.64H164.738ZM166.022 176.257C166.94 177.099 168.32 177.4 169.898 177.4V175.4C168.488 175.4 167.735 175.115 167.373 174.783L166.022 176.257ZM169.898 177.4H174.778V175.4H169.898V177.4ZM196.078 150.8H195.078V154.164L196.915 151.346L196.078 150.8ZM202.078 145.04L202.578 145.906L202.585 145.902L202.592 145.897L202.078 145.04ZM210.078 142.88H211.078V141.88H210.078V142.88ZM210.078 157.36V158.36H211.078V157.36H210.078ZM198.638 159.6L199.282 160.364L199.289 160.358L199.296 160.353L198.638 159.6ZM196.078 188V189H197.078V188H196.078ZM182.398 188H181.398V189H182.398V188ZM182.398 143.36V142.36H181.398V143.36H182.398ZM196.078 143.36H197.078V142.36H196.078V143.36ZM196.915 151.346C198.434 149.017 200.321 147.21 202.578 145.906L201.577 144.174C199.034 145.644 196.921 147.677 195.24 150.254L196.915 151.346ZM202.592 145.897C204.829 144.555 207.316 143.88 210.078 143.88V141.88C206.972 141.88 204.126 142.645 201.563 144.183L202.592 145.897ZM209.078 142.88V157.36H211.078V142.88H209.078ZM210.078 156.36H206.318V158.36H210.078V156.36ZM206.318 156.36C202.78 156.36 199.941 157.131 197.979 158.847L199.296 160.353C200.748 159.082 203.028 158.36 206.318 158.36V156.36ZM197.993 158.836C195.949 160.56 195.078 163.492 195.078 167.28H197.078C197.078 163.708 197.912 161.52 199.282 160.364L197.993 158.836ZM195.078 167.28V188H197.078V167.28H195.078ZM196.078 187H182.398V189H196.078V187ZM183.398 188V143.36H181.398V188H183.398ZM182.398 144.36H196.078V142.36H182.398V144.36ZM195.078 143.36V150.8H197.078V143.36H195.078ZM230.296 128.8H231.296V127.8H230.296V128.8ZM230.296 188V189H231.296V188H230.296ZM216.616 188H215.616V189H216.616V188ZM216.616 128.8V127.8H215.616V128.8H216.616ZM229.296 128.8V188H231.296V128.8H229.296ZM230.296 187H216.616V189H230.296V187ZM217.616 188V128.8H215.616V188H217.616ZM216.616 129.8H230.296V127.8H216.616V129.8Z" fill="black" mask="url(#path-2-outside-1_743_119)"/>
<rect x="541" width="320" height="320" rx="20" fill="#2F2F30"/>
<mask id="path-5-outside-2_743_119" maskUnits="userSpaceOnUse" x="671" y="130" width="61" height="60" fill="black">
<rect fill="white" x="671" y="130" width="61" height="60"/>
<path d="M701.52 188.56C696.24 188.56 691.387 187.333 686.96 184.88C682.587 182.427 679.093 179.013 676.48 174.64C673.92 170.213 672.64 165.253 672.64 159.76C672.64 154.267 673.92 149.333 676.48 144.96C679.093 140.587 682.587 137.173 686.96 134.72C691.387 132.267 696.24 131.04 701.52 131.04C706.8 131.04 711.627 132.267 716 134.72C720.427 137.173 723.893 140.587 726.4 144.96C728.96 149.333 730.24 154.267 730.24 159.76C730.24 165.253 728.96 170.213 726.4 174.64C723.84 179.013 720.373 182.427 716 184.88C711.627 187.333 706.8 188.56 701.52 188.56ZM701.52 176.08C706 176.08 709.573 174.587 712.24 171.6C714.96 168.613 716.32 164.667 716.32 159.76C716.32 154.8 714.96 150.853 712.24 147.92C709.573 144.933 706 143.44 701.52 143.44C696.987 143.44 693.36 144.907 690.64 147.84C687.973 150.773 686.64 154.747 686.64 159.76C686.64 164.72 687.973 168.693 690.64 171.68C693.36 174.613 696.987 176.08 701.52 176.08Z"/>
</mask>
<path d="M701.52 188.56C696.24 188.56 691.387 187.333 686.96 184.88C682.587 182.427 679.093 179.013 676.48 174.64C673.92 170.213 672.64 165.253 672.64 159.76C672.64 154.267 673.92 149.333 676.48 144.96C679.093 140.587 682.587 137.173 686.96 134.72C691.387 132.267 696.24 131.04 701.52 131.04C706.8 131.04 711.627 132.267 716 134.72C720.427 137.173 723.893 140.587 726.4 144.96C728.96 149.333 730.24 154.267 730.24 159.76C730.24 165.253 728.96 170.213 726.4 174.64C723.84 179.013 720.373 182.427 716 184.88C711.627 187.333 706.8 188.56 701.52 188.56ZM701.52 176.08C706 176.08 709.573 174.587 712.24 171.6C714.96 168.613 716.32 164.667 716.32 159.76C716.32 154.8 714.96 150.853 712.24 147.92C709.573 144.933 706 143.44 701.52 143.44C696.987 143.44 693.36 144.907 690.64 147.84C687.973 150.773 686.64 154.747 686.64 159.76C686.64 164.72 687.973 168.693 690.64 171.68C693.36 174.613 696.987 176.08 701.52 176.08Z" fill="#F9FBFD"/>
<path d="M686.96 184.88L686.471 185.752L686.475 185.755L686.96 184.88ZM676.48 174.64L675.614 175.141L675.618 175.147L675.622 175.153L676.48 174.64ZM676.48 144.96L675.622 144.447L675.617 144.455L676.48 144.96ZM686.96 134.72L686.475 133.845L686.471 133.848L686.96 134.72ZM716 134.72L715.511 135.592L715.515 135.595L716 134.72ZM726.4 144.96L725.532 145.457L725.537 145.465L726.4 144.96ZM726.4 174.64L727.263 175.145L727.266 175.141L726.4 174.64ZM716 184.88L716.489 185.752L716.489 185.752L716 184.88ZM712.24 171.6L711.501 170.927L711.494 170.934L712.24 171.6ZM712.24 147.92L711.494 148.586L711.5 148.593L711.507 148.6L712.24 147.92ZM690.64 147.84L689.907 147.16L689.9 147.167L690.64 147.84ZM690.64 171.68L689.894 172.346L689.9 172.353L689.907 172.36L690.64 171.68ZM701.52 187.56C696.402 187.56 691.717 186.373 687.445 184.005L686.475 185.755C691.057 188.294 696.078 189.56 701.52 189.56V187.56ZM687.449 184.008C683.231 181.641 679.864 178.353 677.338 174.127L675.622 175.153C678.323 179.674 681.943 183.212 686.471 185.752L687.449 184.008ZM677.346 174.139C674.88 169.876 673.64 165.091 673.64 159.76H671.64C671.64 165.416 672.96 170.551 675.614 175.141L677.346 174.139ZM673.64 159.76C673.64 154.429 674.88 149.672 677.343 145.465L675.617 144.455C672.96 148.994 671.64 154.105 671.64 159.76H673.64ZM677.338 145.473C679.864 141.247 683.231 137.959 687.449 135.592L686.471 133.848C681.943 136.388 678.323 139.926 675.622 144.447L677.338 145.473ZM687.445 135.595C691.717 133.227 696.402 132.04 701.52 132.04V130.04C696.078 130.04 691.057 131.306 686.475 133.845L687.445 135.595ZM701.52 132.04C706.638 132.04 711.295 133.227 715.511 135.592L716.489 133.848C711.958 131.306 706.962 130.04 701.52 130.04V132.04ZM715.515 135.595C719.783 137.96 723.117 141.243 725.532 145.457L727.268 144.463C724.67 139.93 721.07 136.387 716.485 133.845L715.515 135.595ZM725.537 145.465C728 149.672 729.24 154.429 729.24 159.76H731.24C731.24 154.105 729.92 148.994 727.263 144.455L725.537 145.465ZM729.24 159.76C729.24 165.091 728 169.876 725.534 174.139L727.266 175.141C729.92 170.551 731.24 165.416 731.24 159.76H729.24ZM725.537 174.135C723.066 178.357 719.727 181.642 715.511 184.008L716.489 185.752C721.019 183.211 724.614 179.67 727.263 175.145L725.537 174.135ZM715.511 184.008C711.295 186.373 706.638 187.56 701.52 187.56V189.56C706.962 189.56 711.958 188.294 716.489 185.752L715.511 184.008ZM701.52 177.08C706.247 177.08 710.106 175.492 712.986 172.266L711.494 170.934C709.041 173.682 705.753 175.08 701.52 175.08V177.08ZM712.979 172.273C715.901 169.065 717.32 164.86 717.32 159.76H715.32C715.32 164.474 714.019 168.162 711.501 170.927L712.979 172.273ZM717.32 159.76C717.32 154.611 715.903 150.4 712.973 147.24L711.507 148.6C714.017 151.307 715.32 154.989 715.32 159.76H717.32ZM712.986 147.254C710.106 144.028 706.247 142.44 701.52 142.44V144.44C705.753 144.44 709.041 145.838 711.494 148.586L712.986 147.254ZM701.52 142.44C696.749 142.44 692.842 143.994 689.907 147.16L691.373 148.52C693.878 145.819 697.224 144.44 701.52 144.44V142.44ZM689.9 147.167C687.025 150.33 685.64 154.566 685.64 159.76H687.64C687.64 154.927 688.921 151.217 691.38 148.513L689.9 147.167ZM685.64 159.76C685.64 164.905 687.027 169.135 689.894 172.346L691.386 171.014C688.919 168.252 687.64 164.535 687.64 159.76H685.64ZM689.907 172.36C692.842 175.526 696.749 177.08 701.52 177.08V175.08C697.224 175.08 693.878 173.701 691.373 171L689.907 172.36Z" fill="black" mask="url(#path-5-outside-2_743_119)"/>
<path d="M450.52 178.16H436.6V192.4H423.64V178.16H409.72V165.92H423.64V151.6H436.6V165.92H450.52V178.16Z" fill="#2F2F30"/>
</svg>
