<svg width="467" height="320" viewBox="0 0 467 320" fill="none" xmlns="http://www.w3.org/2000/svg">
<rect width="467" height="320" rx="20" fill="#2F2F30"/>
<path d="M199.36 131.84V142.8H184.48V188H170.8V142.8H155.92V131.84H199.36ZM241.186 178.08H220.226L216.866 188H202.546L222.866 131.84H238.706L259.026 188H244.546L241.186 178.08ZM237.666 167.52L230.706 146.96L223.826 167.52H237.666ZM299.21 159.2C302.463 159.893 305.077 161.52 307.05 164.08C309.023 166.587 310.01 169.467 310.01 172.72C310.01 177.413 308.357 181.147 305.05 183.92C301.797 186.64 297.237 188 291.37 188H265.21V131.84H290.49C296.197 131.84 300.65 133.147 303.85 135.76C307.103 138.373 308.73 141.92 308.73 146.4C308.73 149.707 307.85 152.453 306.09 154.64C304.383 156.827 302.09 158.347 299.21 159.2ZM278.89 154.56H287.85C290.09 154.56 291.797 154.08 292.97 153.12C294.197 152.107 294.81 150.64 294.81 148.72C294.81 146.8 294.197 145.333 292.97 144.32C291.797 143.307 290.09 142.8 287.85 142.8H278.89V154.56ZM288.97 176.96C291.263 176.96 293.023 176.453 294.25 175.44C295.53 174.373 296.17 172.853 296.17 170.88C296.17 168.907 295.503 167.36 294.17 166.24C292.89 165.12 291.103 164.56 288.81 164.56H278.89V176.96H288.97Z" fill="#F9FBFD"/>
</svg>
